<?xml version="1.0" encoding="UTF-8"?>
<svg id="Layer_1" xmlns="http://www.w3.org/2000/svg" version="1.1" viewBox="0 0 226.77 255.12">
  <defs>
    <style>
      .st0 {
        fill: #006225;
      }

      .st0, .st1 {
        fill-rule: evenodd;
      }

      .st1 {
        fill: #bf311a;
      }
    </style>
  </defs>
  <g>
    <path class="st0" d="M39.89,7.82c13.57,27.84,34.1,55.49,70.43,78.81,44.07,28.28,66.81,55.41,66.52,54.33-5.39-20.2-19.93-37.67-33-50.74-15.83-15.83-50.78-31.58-67.13-35.32,5.58-1.11,16.99-2.09,18.12-2.09,30.76,0,68.9,16.96,90.28,54.1,11.15,19.38,14.57,59.72,14.57,60.84,0,5.56,4.9,47.28,6.38,53.67-17.45-46.93-49.41-67.67-92.49-98.05-14.19-10.01-30.33-24.18-45.16-39.6-.3,1.2.07,31.46,17.75,54.71,12.12,15.94,38.6,34.98,59.47,36.01,13.07.65,17.71.29,23.36-.93-10.28,7.47-23.92,11.96-37.62,11.96-44.9,0-81.33-38.44-84.95-91.48l-2.24-53.43c0-11-2.68-21.64-4.27-32.78Z" />
    <polygon class="st1" points="23.4 217.95 29.41 217.95 31.66 203.76 31.73 203.76 40.5 217.95 46.52 217.95 50.19 194.79 44.17 194.79 41.93 208.95 41.87 208.95 33.08 194.79 27.06 194.79 23.4 217.95" />
    <path class="st1" d="M64.38,209.32h-5.01l3.66-7.37h.06l1.29,7.37ZM65.28,213.93l.87,4.02h6.42l-5.05-23.16h-6.57l-12.57,23.16h6.39l2.24-4.02h8.29Z" />
    <polygon class="st1" points="84.24 199.89 89.22 199.89 90.02 194.79 74.05 194.79 73.24 199.89 78.22 199.89 75.36 217.95 81.38 217.95 84.24 199.89" />
    <polygon class="st1" points="98.22 194.79 92.2 194.79 88.53 217.95 94.55 217.95 98.22 194.79" />
    <path class="st1" d="M112.99,199.86c3.59,0,6.08,2.91,5.58,6.11-.63,3.99-4.04,6.91-7.64,6.91s-6.08-2.92-5.45-6.91c.51-3.19,3.92-6.11,7.51-6.11ZM113.91,194.02c-6.66,0-13.59,4.91-14.69,11.92-1.19,7.49,3.35,12.78,10.78,12.78s13.64-5.28,14.83-12.78c1.11-7-4.26-11.92-10.92-11.92Z" />
    <polygon class="st1" points="125.72 217.95 131.74 217.95 133.99 203.76 134.05 203.76 142.83 217.95 148.85 217.95 152.52 194.79 146.5 194.79 144.26 208.95 144.19 208.95 135.41 194.79 129.39 194.79 125.72 217.95" />
    <path class="st1" d="M166.71,209.32h-5.01l3.66-7.37h.06l1.29,7.37ZM167.61,213.93l.87,4.02h6.42l-5.06-23.16h-6.57l-12.58,23.16h6.39l2.24-4.02h8.29Z" />
    <polygon class="st1" points="186.45 194.79 180.43 194.79 176.77 217.95 190 217.95 190.81 212.85 183.59 212.85 186.45 194.79" />
    <path class="st1" d="M109.8,228.38h1.02c2.33,0,4.33.03,3.86,2.95-.45,2.83-2.6,2.83-4.78,2.83h-1.01l.92-5.78ZM100.89,246.69h6.02l1.22-7.68h3.41c5.25,0,8.58-2.39,9.45-7.86.84-5.31-2.23-7.62-7.21-7.62h-9.21l-3.67,23.16Z" />
    <path class="st1" d="M132.84,238.06h-5.01l3.66-7.37h.06l1.29,7.37ZM133.74,242.66l.87,4.02h6.42l-5.06-23.16h-6.57l-12.57,23.16h6.39l2.23-4.02h8.29Z" />
    <path class="st1" d="M151.85,228.13h.58c1.96,0,4.12.37,3.72,2.89-.4,2.52-2.67,2.89-4.63,2.89h-.58l.92-5.78ZM156.38,237.2c3.38-.58,5.6-3.34,6.1-6.54.78-4.94-2.34-7.13-6.92-7.13h-9l-3.67,23.16h6.02l1.41-8.91h.06l4.27,8.91h7.49l-5.77-9.49Z" />
    <polygon class="st1" points="172.01 233.08 171.95 233.08 173.47 223.53 167.45 223.53 163.78 246.69 169.8 246.69 171.39 236.64 171.45 236.64 177.63 246.69 185.43 246.69 177.32 234.5 188.27 223.53 180.81 223.53 172.01 233.08" />
  </g>
  <path class="st1" d="M205.63,224.82c-1.87-1.17-4.62-1.91-6.95-1.91-4.64,0-8.47,3.07-9.22,7.77-.71,4.48,1.62,5.47,5.23,6.54,1.23.37,3.5.95,3.24,2.64-.26,1.62-1.88,2.33-3.29,2.33-2.06,0-3.67-1.07-4.97-2.39l-3.35,4.85c2.1,1.66,4.81,2.64,7.72,2.64,2.33,0,4.86-.64,6.92-2.18,2.09-1.57,3.02-3.93,3.38-6.24.59-3.75-1.64-5.38-4.71-6.33l-1.46-.46c-.99-.34-2.54-.86-2.32-2.21.2-1.29,1.78-1.94,2.88-1.94,1.48,0,2.79.61,3.75,1.54l3.14-4.67Z" />
</svg>