<?xml version="1.0" encoding="UTF-8"?>
<!DOCTYPE svg PUBLIC "-//W3C//DTD SVG 1.1//EN" "http://www.w3.org/Graphics/SVG/1.1/DTD/svg11.dtd">
<svg xmlns="http://www.w3.org/2000/svg" version="1.1" width="622px" height="532px" style="shape-rendering:geometricPrecision; text-rendering:geometricPrecision; image-rendering:optimizeQuality; fill-rule:evenodd; clip-rule:evenodd" xmlns:xlink="http://www.w3.org/1999/xlink">
<g><path style="opacity:0.994" fill="#439f3f" d="M 312.5,12.5 C 317.635,11.8277 321.135,13.8277 323,18.5C 323.667,30.5 323.667,42.5 323,54.5C 320.624,59.2266 316.791,60.7266 311.5,59C 310.667,58.1667 309.833,57.3333 309,56.5C 308.333,42.8333 308.333,29.1667 309,15.5C 310.518,14.8366 311.685,13.8366 312.5,12.5 Z"/></g>
<g><path style="opacity:1" fill="#439f40" d="M 424.5,43.5 C 432.99,41.8338 436.823,45.1671 436,53.5C 430.765,63.8891 424.932,73.8891 418.5,83.5C 408.87,88.034 404.703,85.034 406,74.5C 411.186,63.4414 417.353,53.1081 424.5,43.5 Z"/></g>
<g><path style="opacity:0.999" fill="#44a041" d="M 198.5,43.5 C 201.579,43.2601 204.579,43.5934 207.5,44.5C 214.09,54.0078 219.924,64.0078 225,74.5C 226.833,83.3333 223.333,86.8333 214.5,85C 212.895,83.6397 211.395,82.1397 210,80.5C 203.916,70.8323 198.749,60.6656 194.5,50C 195.25,47.4288 196.583,45.2622 198.5,43.5 Z"/></g>
<g><path style="opacity:1" fill="#449f40" d="M 352.5,93.5 C 351.761,93.369 351.094,93.5357 350.5,94C 352.167,94.3333 353.833,94.6667 355.5,95C 355.043,95.414 354.709,95.914 354.5,96.5C 355.85,98.3864 357.517,99.8864 359.5,101C 357.845,103.247 357.512,105.58 358.5,108C 350.523,107.028 342.523,105.695 334.5,104C 330.179,103.501 325.846,103.334 321.5,103.5C 314.3,103.578 307.3,104.245 300.5,105.5C 284.522,107.66 269.188,111.994 254.5,118.5C 251.143,119.627 247.809,119.627 244.5,118.5C 244.5,117.5 244.5,116.5 244.5,115.5C 241.223,115.216 238.057,115.549 235,116.5C 234.268,114.294 234.935,112.628 237,111.5C 237.333,111.833 237.667,112.167 238,112.5C 238.483,111.552 238.649,110.552 238.5,109.5C 274.273,88.2785 312.273,82.9451 352.5,93.5 Z"/></g>
<g><path style="opacity:1" fill="#49a246" d="M 352.5,93.5 C 363.282,96.0395 373.615,99.8728 383.5,105C 387.58,107.029 391.246,109.529 394.5,112.5C 392.325,112.318 390.325,111.651 388.5,110.5C 387.833,110.833 387.167,111.167 386.5,111.5C 388.173,113.523 388.84,115.856 388.5,118.5C 389.5,118.5 390.5,118.5 391.5,118.5C 391.325,121.329 392.658,122.996 395.5,123.5C 394.643,126.451 394.643,129.451 395.5,132.5C 375.564,116.874 352.898,107.874 327.5,105.5C 325.5,104.833 323.5,104.167 321.5,103.5C 325.846,103.334 330.179,103.501 334.5,104C 342.523,105.695 350.523,107.028 358.5,108C 357.512,105.58 357.845,103.247 359.5,101C 357.517,99.8864 355.85,98.3864 354.5,96.5C 354.709,95.914 355.043,95.414 355.5,95C 353.833,94.6667 352.167,94.3333 350.5,94C 351.094,93.5357 351.761,93.369 352.5,93.5 Z"/></g>
<g><path style="opacity:0.212" fill="#d8f5c6" d="M 321.5,103.5 C 323.5,104.167 325.5,104.833 327.5,105.5C 318.5,105.5 309.5,105.5 300.5,105.5C 307.3,104.245 314.3,103.578 321.5,103.5 Z"/></g>
<g><path style="opacity:1" fill="#47a144" d="M 394.5,112.5 C 423.063,129.96 443.396,154.293 455.5,185.5C 453.69,184.586 452.69,182.586 452.5,179.5C 451.167,179.5 449.833,179.5 448.5,179.5C 448.05,184.954 450.384,188.454 455.5,190C 454.045,192.016 452.045,192.849 449.5,192.5C 448.689,196.278 447.689,196.111 446.5,192C 448.064,190.395 448.564,188.562 448,186.5C 446.859,188.609 445.359,190.442 443.5,192C 445.868,197.916 447.201,204.083 447.5,210.5C 438.167,179.167 420.834,153.167 395.5,132.5C 394.643,129.451 394.643,126.451 395.5,123.5C 392.658,122.996 391.325,121.329 391.5,118.5C 390.5,118.5 389.5,118.5 388.5,118.5C 388.84,115.856 388.173,113.523 386.5,111.5C 387.167,111.167 387.833,110.833 388.5,110.5C 390.325,111.651 392.325,112.318 394.5,112.5 Z"/></g>
<g><path style="opacity:1" fill="#439f40" d="M 116.5,125.5 C 118.527,125.338 120.527,125.505 122.5,126C 132.757,131.266 142.757,136.933 152.5,143C 156.512,147.643 156.179,151.977 151.5,156C 148.833,156.667 146.167,156.667 143.5,156C 132.584,150.964 122.418,144.797 113,137.5C 111.593,132.643 112.76,128.643 116.5,125.5 Z"/></g>
<g><path style="opacity:1" fill="#47a144" d="M 238.5,109.5 C 238.649,110.552 238.483,111.552 238,112.5C 237.667,112.167 237.333,111.833 237,111.5C 234.935,112.628 234.268,114.294 235,116.5C 238.057,115.549 241.223,115.216 244.5,115.5C 244.5,116.5 244.5,117.5 244.5,118.5C 247.809,119.627 251.143,119.627 254.5,118.5C 215.55,140.126 191.55,172.792 182.5,216.5C 184.305,208.808 181.305,205.308 173.5,206C 172.307,202.546 173.474,200.046 177,198.5C 177.495,196.527 177.662,194.527 177.5,192.5C 175.379,192.325 173.379,192.659 171.5,193.5C 183.367,157.072 205.7,129.072 238.5,109.5 Z"/></g>
<g><path style="opacity:1" fill="#439e40" d="M 508.5,125.5 C 514.46,124.983 518.127,127.649 519.5,133.5C 519.02,135.949 518.02,138.115 516.5,140C 506.786,145.857 496.786,151.191 486.5,156C 480.015,157.686 476.348,155.186 475.5,148.5C 476.034,146.386 477.034,144.552 478.5,143C 488.41,136.904 498.41,131.071 508.5,125.5 Z"/></g>
<g><path style="opacity:1" fill="#46a144" d="M 344.5,137.5 C 351.695,137.954 358.361,140.12 364.5,144C 368.524,148.91 368.191,153.577 363.5,158C 355.671,158.06 348.337,156.06 341.5,152C 337.049,146.09 338.049,141.257 344.5,137.5 Z"/></g>
<g><path style="opacity:1" fill="#47a144" d="M 377.5,156.5 C 380.978,156.184 384.312,156.684 387.5,158C 398.117,167.111 406.95,177.611 414,189.5C 416.578,200.587 412.412,204.42 401.5,201C 393.424,189.586 384.59,178.753 375,168.5C 372.696,163.855 373.529,159.855 377.5,156.5 Z"/></g>
<g><path style="opacity:1" fill="#47a143" d="M 455.5,185.5 C 465.529,207.7 469.029,231.033 466,255.5C 465.024,265.561 462.857,275.227 459.5,284.5C 458.571,285.936 457.405,287.269 456,288.5C 454.211,286.771 452.044,286.104 449.5,286.5C 449.549,279.987 448.883,273.654 447.5,267.5C 450.146,248.497 450.146,229.497 447.5,210.5C 447.201,204.083 445.868,197.916 443.5,192C 445.359,190.442 446.859,188.609 448,186.5C 448.564,188.562 448.064,190.395 446.5,192C 447.689,196.111 448.689,196.278 449.5,192.5C 452.045,192.849 454.045,192.016 455.5,190C 450.384,188.454 448.05,184.954 448.5,179.5C 449.833,179.5 451.167,179.5 452.5,179.5C 452.69,182.586 453.69,184.586 455.5,185.5 Z"/></g>
<g><path style="opacity:1" fill="#419d3e" d="M 182.5,216.5 C 182.5,216.833 182.5,217.167 182.5,217.5C 181.849,218.091 181.182,218.757 180.5,219.5C 179.676,222.785 179.176,226.118 179,229.5C 176.317,230.893 176.15,232.226 178.5,233.5C 179.498,242.141 179.831,250.808 179.5,259.5C 175.646,259.828 171.979,259.162 168.5,257.5C 167.416,257.685 166.416,258.018 165.5,258.5C 162.775,236.342 164.775,214.676 171.5,193.5C 173.379,192.659 175.379,192.325 177.5,192.5C 177.662,194.527 177.495,196.527 177,198.5C 173.474,200.046 172.307,202.546 173.5,206C 181.305,205.308 184.305,208.808 182.5,216.5 Z"/></g>
<g><path style="opacity:1" fill="#439f40" d="M 421.5,223.5 C 421.5,224.833 421.5,226.167 421.5,227.5C 417.154,227.334 412.821,227.501 408.5,228C 406.881,228.236 405.881,229.069 405.5,230.5C 396.463,230.836 387.463,231.503 378.5,232.5C 373.833,232.5 369.167,232.5 364.5,232.5C 364.5,231.5 364.5,230.5 364.5,229.5C 360.445,229.824 356.445,229.491 352.5,228.5C 354.502,226.162 356.502,223.829 358.5,221.5C 372.233,216.32 386.566,213.987 401.5,214.5C 406.5,214.667 411.5,214.833 416.5,215C 420.488,216.484 422.154,219.317 421.5,223.5 Z"/></g>
<g><path style="opacity:1" fill="#48a244" d="M 421.5,223.5 C 422.654,229.987 422.821,236.654 422,243.5C 421.667,252.502 420.167,261.168 417.5,269.5C 417.699,266.059 417.199,262.726 416,259.5C 413.379,259.704 410.545,259.704 407.5,259.5C 408.366,263.206 408.699,266.873 408.5,270.5C 409.5,270.5 410.5,270.5 411.5,270.5C 411.5,272.5 411.5,274.5 411.5,276.5C 409.856,276.714 408.356,276.38 407,275.5C 404.638,272.696 403.305,269.696 403,266.5C 402.998,269.051 402.164,271.051 400.5,272.5C 404.331,260.839 405.998,248.839 405.5,236.5C 405.5,234.833 405.5,233.167 405.5,231.5C 405.5,231.167 405.5,230.833 405.5,230.5C 405.881,229.069 406.881,228.236 408.5,228C 412.821,227.501 417.154,227.334 421.5,227.5C 421.5,226.167 421.5,224.833 421.5,223.5 Z"/></g>
<g><path style="opacity:1" fill="#50a64c" d="M 358.5,221.5 C 356.502,223.829 354.502,226.162 352.5,228.5C 356.445,229.491 360.445,229.824 364.5,229.5C 364.5,230.5 364.5,231.5 364.5,232.5C 369.167,232.5 373.833,232.5 378.5,232.5C 378.5,232.833 378.5,233.167 378.5,233.5C 377.432,234.434 376.099,234.768 374.5,234.5C 368.753,235.414 363.086,236.747 357.5,238.5C 356.807,239.518 356.141,240.518 355.5,241.5C 349.612,245.207 344.112,249.541 339,254.5C 336.143,258.898 333.309,263.232 330.5,267.5C 330.167,267.5 329.833,267.5 329.5,267.5C 329.332,263.453 330.665,260.12 333.5,257.5C 333.154,256.304 332.654,256.304 332,257.5C 331.667,253.167 331.333,248.833 331,244.5C 328.291,243.294 326.625,244.294 326,247.5C 325.667,247.167 325.333,246.833 325,246.5C 324.292,247.381 323.458,248.047 322.5,248.5C 331.557,235.632 343.557,226.632 358.5,221.5 Z"/></g>
<g><path style="opacity:0.011" fill="#f2fee7" d="M 405.5,230.5 C 405.5,230.833 405.5,231.167 405.5,231.5C 396.528,232.266 387.528,232.932 378.5,233.5C 378.5,233.167 378.5,232.833 378.5,232.5C 387.463,231.503 396.463,230.836 405.5,230.5 Z"/></g>
<g><path style="opacity:1" fill="#45a042" d="M 255.5,248.5 C 249.401,247.194 243.401,247.194 237.5,248.5C 238.344,252.099 238.677,255.766 238.5,259.5C 238.335,262.518 238.502,265.518 239,268.5C 239.278,269.416 239.778,270.082 240.5,270.5C 242.161,275.818 243.828,281.151 245.5,286.5C 245.89,289.839 246.39,293.173 247,296.5C 248.322,299.468 249.489,302.468 250.5,305.5C 246.71,305.008 246.044,305.841 248.5,308C 247.098,309.342 247.431,310.176 249.5,310.5C 251.569,310.176 251.902,309.342 250.5,308C 251.5,307.833 252.5,307.667 253.5,307.5C 255.204,308.068 256.704,308.068 258,307.5C 258.5,308.667 259.333,309.5 260.5,310C 259.833,310.333 259.167,310.667 258.5,311C 259.792,314.14 261.126,317.306 262.5,320.5C 261.995,321.919 260.995,322.585 259.5,322.5C 248.943,317.625 240.443,310.292 234,300.5C 223.25,280.876 219.25,259.876 222,237.5C 222.377,236.058 223.21,235.058 224.5,234.5C 239.023,232.569 253.357,233.402 267.5,237C 268.833,238 270.167,239 271.5,240C 266.743,240.81 262.076,240.476 257.5,239C 256.809,237.933 256.309,236.766 256,235.5C 254.585,238.958 254.085,242.625 254.5,246.5C 258.806,247.066 259.139,247.732 255.5,248.5 Z"/></g>
<g><path style="opacity:1" fill="#4da549" d="M 310.5,266.5 C 308.621,265.659 306.621,265.325 304.5,265.5C 304.5,266.5 304.5,267.5 304.5,268.5C 303.5,268.5 302.5,268.5 301.5,268.5C 301.66,270.199 301.494,271.866 301,273.5C 300.667,272.5 300.333,271.5 300,270.5C 299.163,272.351 298.329,274.184 297.5,276C 299.291,278.106 299.958,280.606 299.5,283.5C 295.351,272.044 288.018,263.211 277.5,257C 273.077,255.115 268.744,253.281 264.5,251.5C 261.647,250.046 258.647,249.046 255.5,248.5C 259.139,247.732 258.806,247.066 254.5,246.5C 254.085,242.625 254.585,238.958 256,235.5C 256.309,236.766 256.809,237.933 257.5,239C 262.076,240.476 266.743,240.81 271.5,240C 270.167,239 268.833,238 267.5,237C 253.357,233.402 239.023,232.569 224.5,234.5C 225.347,233.034 226.68,232.2 228.5,232C 252.341,229.302 274.341,234.302 294.5,247C 301.203,252.521 306.537,259.021 310.5,266.5 Z"/></g>
<g><path style="opacity:1" fill="#c0e5b9" d="M 374.5,234.5 C 368.176,236.611 361.842,238.944 355.5,241.5C 356.141,240.518 356.807,239.518 357.5,238.5C 363.086,236.747 368.753,235.414 374.5,234.5 Z"/></g>
<g><path style="opacity:1" fill="#43a042" d="M 86.5,238.5 C 98.8378,238.333 111.171,238.5 123.5,239C 128.227,241.376 129.727,245.209 128,250.5C 127.167,252 126,253.167 124.5,254C 111.833,254.667 99.1667,254.667 86.5,254C 79.9131,248.739 79.9131,243.572 86.5,238.5 Z"/></g>
<g><path style="opacity:1" fill="#439f40" d="M 507.5,238.5 C 520.171,238.333 532.838,238.5 545.5,239C 551.102,244.392 550.768,249.392 544.5,254C 532.5,254.667 520.5,254.667 508.5,254C 502.839,252.221 501.005,248.388 503,242.5C 504.397,240.93 505.897,239.596 507.5,238.5 Z"/></g>
<g><path style="opacity:1" fill="#43a040" d="M 329.5,267.5 C 327.892,270.991 326.892,274.658 326.5,278.5C 325.833,279.167 325.167,279.833 324.5,280.5C 324.279,276.795 323.779,273.461 323,270.5C 322.667,270.167 322.333,269.833 322,269.5C 321.888,272.447 320.388,273.78 317.5,273.5C 317.741,276.999 316.908,277.332 315,274.5C 314.5,284.161 314.334,293.828 314.5,303.5C 312.167,303.5 309.833,303.5 307.5,303.5C 307.715,305.179 307.048,306.179 305.5,306.5C 304.833,304.167 304.167,301.833 303.5,299.5C 303.5,299.167 303.5,298.833 303.5,298.5C 303.824,294.445 303.491,290.445 302.5,286.5C 301.712,285.23 300.712,284.23 299.5,283.5C 299.958,280.606 299.291,278.106 297.5,276C 298.329,274.184 299.163,272.351 300,270.5C 300.333,271.5 300.667,272.5 301,273.5C 301.494,271.866 301.66,270.199 301.5,268.5C 302.5,268.5 303.5,268.5 304.5,268.5C 304.5,267.5 304.5,266.5 304.5,265.5C 306.621,265.325 308.621,265.659 310.5,266.5C 311.376,266.631 312.043,266.298 312.5,265.5C 314.586,258.979 317.92,253.312 322.5,248.5C 323.458,248.047 324.292,247.381 325,246.5C 325.333,246.833 325.667,247.167 326,247.5C 326.625,244.294 328.291,243.294 331,244.5C 331.333,248.833 331.667,253.167 332,257.5C 332.654,256.304 333.154,256.304 333.5,257.5C 330.665,260.12 329.332,263.453 329.5,267.5 Z"/></g>
<g><path style="opacity:1" fill="#99d58f" d="M 237.5,248.5 C 243.401,247.194 249.401,247.194 255.5,248.5C 258.647,249.046 261.647,250.046 264.5,251.5C 255.552,250.08 246.552,249.08 237.5,248.5 Z"/></g>
<g><path style="opacity:1" fill="#4fa54a" d="M 182.5,217.5 C 178.549,246.516 182.883,274.182 195.5,300.5C 194.417,300.461 193.417,300.127 192.5,299.5C 191.912,297.089 190.745,295.089 189,293.5C 187.383,294.536 187.216,295.703 188.5,297C 186.697,297.637 185.364,298.803 184.5,300.5C 183.107,299.137 181.441,298.304 179.5,298C 181.677,296.798 184.011,296.298 186.5,296.5C 186.319,293.603 186.652,290.77 187.5,288C 187.046,285.964 186.213,284.13 185,282.5C 184.11,287.175 182.444,291.508 180,295.5C 179.667,295.167 179.333,294.833 179,294.5C 177.991,296.025 177.491,297.692 177.5,299.5C 171.503,286.527 167.503,272.861 165.5,258.5C 166.416,258.018 167.416,257.685 168.5,257.5C 171.979,259.162 175.646,259.828 179.5,259.5C 179.831,250.808 179.498,242.141 178.5,233.5C 176.15,232.226 176.317,230.893 179,229.5C 179.176,226.118 179.676,222.785 180.5,219.5C 181.182,218.757 181.849,218.091 182.5,217.5 Z"/></g>
<g><path style="opacity:1" fill="#4da449" d="M 417.5,269.5 C 411.132,295.197 395.799,313.197 371.5,323.5C 370.653,322.034 369.32,321.2 367.5,321C 369.715,318.444 371.549,315.611 373,312.5C 375.264,315.653 378.431,316.986 382.5,316.5C 382.189,311.333 381.355,306.333 380,301.5C 379.517,302.448 379.351,303.448 379.5,304.5C 374.693,304.907 370.026,305.907 365.5,307.5C 373.9,303.54 381.4,298.206 388,291.5C 390.363,287.655 392.863,283.989 395.5,280.5C 397.68,278.137 399.347,275.47 400.5,272.5C 402.164,271.051 402.998,269.051 403,266.5C 403.305,269.696 404.638,272.696 407,275.5C 408.356,276.38 409.856,276.714 411.5,276.5C 411.5,274.5 411.5,272.5 411.5,270.5C 410.5,270.5 409.5,270.5 408.5,270.5C 408.699,266.873 408.366,263.206 407.5,259.5C 410.545,259.704 413.379,259.704 416,259.5C 417.199,262.726 417.699,266.059 417.5,269.5 Z"/></g>
<g><path style="opacity:1" fill="#b2e4a4" d="M 238.5,259.5 C 239.525,262.974 240.192,266.64 240.5,270.5C 239.778,270.082 239.278,269.416 239,268.5C 238.502,265.518 238.335,262.518 238.5,259.5 Z"/></g>
<g><path style="opacity:1" fill="#47a244" d="M 324.5,280.5 C 324.5,282.5 324.5,284.5 324.5,286.5C 323.778,286.918 323.278,287.584 323,288.5C 322.502,291.482 322.335,294.482 322.5,297.5C 322.553,303.196 322.22,308.862 321.5,314.5C 328.148,313.861 334.814,313.527 341.5,313.5C 350.115,313.346 358.115,311.346 365.5,307.5C 370.026,305.907 374.693,304.907 379.5,304.5C 379.351,303.448 379.517,302.448 380,301.5C 381.355,306.333 382.189,311.333 382.5,316.5C 378.431,316.986 375.264,315.653 373,312.5C 371.549,315.611 369.715,318.444 367.5,321C 369.32,321.2 370.653,322.034 371.5,323.5C 355.407,329.467 338.74,332.467 321.5,332.5C 321.667,345.504 321.5,358.504 321,371.5C 317.83,376.332 313.664,377.499 308.5,375C 306.393,373.736 305.393,371.903 305.5,369.5C 305.5,356.833 305.5,344.167 305.5,331.5C 304.5,331.5 303.5,331.5 302.5,331.5C 287.319,331.932 272.985,328.932 259.5,322.5C 260.995,322.585 261.995,321.919 262.5,320.5C 261.126,317.306 259.792,314.14 258.5,311C 259.167,310.667 259.833,310.333 260.5,310C 259.333,309.5 258.5,308.667 258,307.5C 256.704,308.068 255.204,308.068 253.5,307.5C 252.5,307.667 251.5,307.833 250.5,308C 251.902,309.342 251.569,310.176 249.5,310.5C 247.431,310.176 247.098,309.342 248.5,308C 246.044,305.841 246.71,305.008 250.5,305.5C 249.489,302.468 248.322,299.468 247,296.5C 246.39,293.173 245.89,289.839 245.5,286.5C 251.271,296.272 259.271,303.605 269.5,308.5C 269.863,310.777 270.863,311.444 272.5,310.5C 273.287,311.242 273.953,312.075 274.5,313C 278.486,313.499 282.486,313.666 286.5,313.5C 289.237,313.401 291.904,313.735 294.5,314.5C 297.962,315.482 301.629,315.815 305.5,315.5C 305.5,312.5 305.5,309.5 305.5,306.5C 307.048,306.179 307.715,305.179 307.5,303.5C 309.833,303.5 312.167,303.5 314.5,303.5C 314.334,293.828 314.5,284.161 315,274.5C 316.908,277.332 317.741,276.999 317.5,273.5C 320.388,273.78 321.888,272.447 322,269.5C 322.333,269.833 322.667,270.167 323,270.5C 323.779,273.461 324.279,276.795 324.5,280.5 Z"/></g>
<g><path style="opacity:0.314" fill="#e8fdd8" d="M 329.5,267.5 C 329.833,267.5 330.167,267.5 330.5,267.5C 329.541,271.383 328.208,275.05 326.5,278.5C 326.892,274.658 327.892,270.991 329.5,267.5 Z"/></g>
<g><path style="opacity:1" fill="#bfe7b3" d="M 405.5,236.5 C 405.998,248.839 404.331,260.839 400.5,272.5C 399.347,275.47 397.68,278.137 395.5,280.5C 401.277,266.266 404.61,251.599 405.5,236.5 Z"/></g>
<g><path style="opacity:1" fill="#47a143" d="M 447.5,267.5 C 448.883,273.654 449.549,279.987 449.5,286.5C 452.044,286.104 454.211,286.771 456,288.5C 457.405,287.269 458.571,285.936 459.5,284.5C 449.638,317.336 430.638,343.336 402.5,362.5C 399.478,362.196 396.478,361.696 393.5,361C 394.364,358.438 396.031,356.605 398.5,355.5C 399.246,354.264 399.579,352.93 399.5,351.5C 400.93,351.421 402.264,351.754 403.5,352.5C 404.747,350.994 404.747,349.494 403.5,348C 405.986,344.886 407.653,341.386 408.5,337.5C 427.759,317.648 440.759,294.315 447.5,267.5 Z"/></g>
<g><path style="opacity:0.176" fill="#edfcda" d="M 326.5,278.5 C 326.198,281.373 325.531,284.039 324.5,286.5C 324.5,284.5 324.5,282.5 324.5,280.5C 325.167,279.833 325.833,279.167 326.5,278.5 Z"/></g>
<g><path style="opacity:1" fill="#97cf8c" d="M 299.5,283.5 C 300.712,284.23 301.712,285.23 302.5,286.5C 303.491,290.445 303.824,294.445 303.5,298.5C 302.035,293.646 300.701,288.646 299.5,283.5 Z"/></g>
<g><path style="opacity:0.702" fill="#d3f6bc" d="M 324.5,286.5 C 324.354,290.387 323.687,294.054 322.5,297.5C 322.335,294.482 322.502,291.482 323,288.5C 323.278,287.584 323.778,286.918 324.5,286.5 Z"/></g>
<g><path style="opacity:0.949" fill="#d2f3c5" d="M 365.5,307.5 C 358.115,311.346 350.115,313.346 341.5,313.5C 349.466,311.842 357.466,309.842 365.5,307.5 Z"/></g>
<g><path style="opacity:1" fill="#8cc687" d="M 269.5,308.5 C 275.226,310.344 280.892,312.01 286.5,313.5C 282.486,313.666 278.486,313.499 274.5,313C 273.953,312.075 273.287,311.242 272.5,310.5C 270.863,311.444 269.863,310.777 269.5,308.5 Z"/></g>
<g><path style="opacity:1" fill="#bbf1ad" d="M 303.5,299.5 C 304.167,301.833 304.833,304.167 305.5,306.5C 305.5,309.5 305.5,312.5 305.5,315.5C 301.629,315.815 297.962,315.482 294.5,314.5C 297.572,314.817 300.572,314.484 303.5,313.5C 303.888,308.912 303.888,304.246 303.5,299.5 Z"/></g>
<g><path style="opacity:1" fill="#47a244" d="M 195.5,300.5 C 209.543,325.378 228.877,345.211 253.5,360C 261.689,367.012 267.689,375.512 271.5,385.5C 270.022,385.762 268.689,385.429 267.5,384.5C 268.248,382.584 268.248,380.584 267.5,378.5C 264.365,378.452 262.698,376.785 262.5,373.5C 261.914,373.709 261.414,374.043 261,374.5C 256.001,373.591 251.168,372.924 246.5,372.5C 245.167,373.167 245.167,373.833 246.5,374.5C 248.382,375.093 250.215,375.76 252,376.5C 252.497,378.81 252.663,381.143 252.5,383.5C 249.065,379.562 245.398,375.729 241.5,372C 212.131,354.805 190.798,330.639 177.5,299.5C 177.491,297.692 177.991,296.025 179,294.5C 179.333,294.833 179.667,295.167 180,295.5C 182.444,291.508 184.11,287.175 185,282.5C 186.213,284.13 187.046,285.964 187.5,288C 186.652,290.77 186.319,293.603 186.5,296.5C 184.011,296.298 181.677,296.798 179.5,298C 181.441,298.304 183.107,299.137 184.5,300.5C 185.364,298.803 186.697,297.637 188.5,297C 187.216,295.703 187.383,294.536 189,293.5C 190.745,295.089 191.912,297.089 192.5,299.5C 193.417,300.127 194.417,300.461 195.5,300.5 Z"/></g>
<g><path style="opacity:1" fill="#44a041" d="M 479.5,336.5 C 482.187,336.336 484.854,336.503 487.5,337C 498.416,342.036 508.582,348.203 518,355.5C 519.385,366.725 514.885,369.892 504.5,365C 495.668,360.085 487.001,354.918 478.5,349.5C 475.622,344.874 475.955,340.541 479.5,336.5 Z"/></g>
<g><path style="opacity:1" fill="#449f41" d="M 143.5,336.5 C 152.328,335.161 155.828,338.827 154,347.5C 143.529,356.236 131.862,362.903 119,367.5C 112.902,365.831 110.902,361.831 113,355.5C 114.873,353.291 117.04,351.458 119.5,350C 127.724,345.726 135.724,341.226 143.5,336.5 Z"/></g>
<g><path style="opacity:1" fill="#49a245" d="M 408.5,337.5 C 407.653,341.386 405.986,344.886 403.5,348C 404.747,349.494 404.747,350.994 403.5,352.5C 402.264,351.754 400.93,351.421 399.5,351.5C 399.579,352.93 399.246,354.264 398.5,355.5C 396.031,356.605 394.364,358.438 393.5,361C 396.478,361.696 399.478,362.196 402.5,362.5C 396.234,366.919 390.067,371.586 384,376.5C 378.7,381.767 375.533,388.101 374.5,395.5C 371.605,391.198 367.605,388.532 362.5,387.5C 362.217,386.711 361.717,386.044 361,385.5C 360.392,387.066 359.558,388.4 358.5,389.5C 361.1,380.72 365.267,372.72 371,365.5C 383.678,356.31 396.178,346.977 408.5,337.5 Z"/></g>
<g><path style="opacity:0.892" fill="#a8f49b" d="M 302.5,331.5 C 303.5,331.5 304.5,331.5 305.5,331.5C 305.5,344.167 305.5,356.833 305.5,369.5C 304.669,358.007 304.169,346.341 304,334.5C 303.487,333.473 302.987,332.473 302.5,331.5 Z"/></g>
<g><path style="opacity:1" fill="#429e3e" d="M 362.5,387.5 C 367.605,388.532 371.605,391.198 374.5,395.5C 375.79,396.058 376.623,397.058 377,398.5C 377.667,420.833 377.667,443.167 377,465.5C 376.292,466.381 375.458,467.047 374.5,467.5C 372.5,467.5 370.5,467.5 368.5,467.5C 368.5,453.833 368.5,440.167 368.5,426.5C 369.822,426.67 370.989,426.337 372,425.5C 372.667,421.833 372.667,418.167 372,414.5C 371.25,413.874 370.416,413.374 369.5,413C 373.268,411.823 373.101,410.656 369,409.5C 368.517,408.552 368.351,407.552 368.5,406.5C 366.076,406.192 363.743,406.526 361.5,407.5C 362.376,408.251 363.376,408.751 364.5,409C 362.98,411.334 361.98,413.834 361.5,416.5C 361.5,414.5 361.5,412.5 361.5,410.5C 344.167,410.5 326.833,410.5 309.5,410.5C 296.677,409.505 283.677,409.171 270.5,409.5C 271.952,408.698 273.618,408.198 275.5,408C 274.594,406.301 274.261,404.467 274.5,402.5C 273.167,402.5 271.833,402.5 270.5,402.5C 270.45,400.41 271.45,399.077 273.5,398.5C 279.945,398.218 286.445,398.552 293,399.5C 295.609,399.625 297.942,398.958 300,397.5C 301.462,397.994 302.962,398.327 304.5,398.5C 322.526,397.86 340.526,397.193 358.5,396.5C 359.167,397.5 359.833,398.5 360.5,399.5C 361.086,399.291 361.586,398.957 362,398.5C 362.499,394.848 362.665,391.182 362.5,387.5 Z"/></g>
<g><path style="opacity:1" fill="#419d3f" d="M 271.5,385.5 C 272.234,386.708 272.567,388.041 272.5,389.5C 272.286,391.144 272.62,392.644 273.5,394C 301.498,394.5 329.498,394.667 357.5,394.5C 357.5,393.5 357.5,392.5 357.5,391.5C 357.833,390.833 358.167,390.167 358.5,389.5C 359.558,388.4 360.392,387.066 361,385.5C 361.717,386.044 362.217,386.711 362.5,387.5C 362.665,391.182 362.499,394.848 362,398.5C 361.586,398.957 361.086,399.291 360.5,399.5C 359.833,398.5 359.167,397.5 358.5,396.5C 340.526,397.193 322.526,397.86 304.5,398.5C 302.962,398.327 301.462,397.994 300,397.5C 297.942,398.958 295.609,399.625 293,399.5C 286.445,398.552 279.945,398.218 273.5,398.5C 271.45,399.077 270.45,400.41 270.5,402.5C 271.833,402.5 273.167,402.5 274.5,402.5C 274.261,404.467 274.594,406.301 275.5,408C 273.618,408.198 271.952,408.698 270.5,409.5C 269.169,416.468 268.503,423.802 268.5,431.5C 268.5,439.008 268.834,446.341 269.5,453.5C 270.383,458.103 270.717,462.77 270.5,467.5C 266.881,468.244 263.215,468.577 259.5,468.5C 257.097,468.607 255.264,467.607 254,465.5C 253.333,443.167 253.333,420.833 254,398.5C 255.076,396.933 255.909,395.266 256.5,393.5C 255.708,389.92 254.374,386.587 252.5,383.5C 252.663,381.143 252.497,378.81 252,376.5C 250.215,375.76 248.382,375.093 246.5,374.5C 245.167,373.833 245.167,373.167 246.5,372.5C 251.168,372.924 256.001,373.591 261,374.5C 261.414,374.043 261.914,373.709 262.5,373.5C 262.698,376.785 264.365,378.452 267.5,378.5C 268.248,380.584 268.248,382.584 267.5,384.5C 268.689,385.429 270.022,385.762 271.5,385.5 Z"/></g>
<g><path style="opacity:0.431" fill="#a2e79f" d="M 272.5,389.5 C 273.186,390.848 274.186,392.015 275.5,393C 301.167,393.667 326.833,393.667 352.5,393C 354.247,392.648 355.914,392.148 357.5,391.5C 357.5,392.5 357.5,393.5 357.5,394.5C 329.498,394.667 301.498,394.5 273.5,394C 272.62,392.644 272.286,391.144 272.5,389.5 Z"/></g>
<g><path style="opacity:0.055" fill="#aef3a4" d="M 270.5,409.5 C 283.677,409.171 296.677,409.505 309.5,410.5C 296.167,410.5 282.833,410.5 269.5,410.5C 269.5,424.5 269.5,438.5 269.5,452.5C 296.833,452.5 324.167,452.5 351.5,452.5C 325.672,453.498 299.672,453.831 273.5,453.5C 272.167,453.5 270.833,453.5 269.5,453.5C 268.834,446.341 268.5,439.008 268.5,431.5C 268.503,423.802 269.169,416.468 270.5,409.5 Z"/></g>
<g><path style="opacity:1" fill="#49a247" d="M 269.5,453.5 C 270.833,453.5 272.167,453.5 273.5,453.5C 273.833,454.167 274.167,454.833 274.5,455.5C 274.5,457.167 274.5,458.833 274.5,460.5C 278.846,460.334 283.179,460.501 287.5,461C 288.406,462.699 288.739,464.533 288.5,466.5C 290.857,466.337 293.19,466.503 295.5,467C 294.5,467.333 293.5,467.667 292.5,468C 310.671,468.168 328.671,468.668 346.5,469.5C 325.833,469.5 305.167,469.5 284.5,469.5C 285.342,484.219 292.676,493.886 306.5,498.5C 302.895,498.432 299.561,497.432 296.5,495.5C 295.558,495.608 294.725,495.941 294,496.5C 293.935,494.117 293.102,493.45 291.5,494.5C 290.808,493.975 290.308,493.308 290,492.5C 289.535,493.931 288.701,495.097 287.5,496C 288.579,496.956 289.745,497.789 291,498.5C 291.667,499.167 291.667,499.833 291,500.5C 288.595,500.964 286.095,501.131 283.5,501C 282.829,501.986 282.829,503.153 283.5,504.5C 279.485,500.644 275.985,496.311 273,491.5C 270.218,484.703 268.218,477.703 267,470.5C 264.393,469.877 261.893,469.21 259.5,468.5C 263.215,468.577 266.881,468.244 270.5,467.5C 270.717,462.77 270.383,458.103 269.5,453.5 Z"/></g>
<g><path style="opacity:1" fill="#449e42" d="M 374.5,467.5 C 371.11,468.552 367.61,469.552 364,470.5C 362.897,484.161 357.397,495.661 347.5,505C 345.922,506.094 344.255,506.928 342.5,507.5C 340.952,507.179 340.285,506.179 340.5,504.5C 338.473,504.662 336.473,504.495 334.5,504C 335.956,503.577 336.456,502.744 336,501.5C 333.869,500.385 332.035,499.052 330.5,497.5C 332.042,496.699 333.708,496.366 335.5,496.5C 335.5,495.5 335.5,494.5 335.5,493.5C 342.394,487.041 346.061,479.041 346.5,469.5C 347.641,472.64 347.808,475.973 347,479.5C 344.89,482.492 343.557,485.825 343,489.5C 342.075,490.047 341.242,490.713 340.5,491.5C 340.833,491.833 341.167,492.167 341.5,492.5C 343.173,490.914 345.173,490.247 347.5,490.5C 347.5,488.5 347.5,486.5 347.5,484.5C 349.833,484.5 352.167,484.5 354.5,484.5C 354.5,474.833 354.5,465.167 354.5,455.5C 327.833,455.5 301.167,455.5 274.5,455.5C 274.167,454.833 273.833,454.167 273.5,453.5C 299.672,453.831 325.672,453.498 351.5,452.5C 355.099,453.344 358.766,453.677 362.5,453.5C 362.677,441.146 362.344,428.813 361.5,416.5C 361.98,413.834 362.98,411.334 364.5,409C 363.376,408.751 362.376,408.251 361.5,407.5C 363.743,406.526 366.076,406.192 368.5,406.5C 368.351,407.552 368.517,408.552 369,409.5C 373.101,410.656 373.268,411.823 369.5,413C 370.416,413.374 371.25,413.874 372,414.5C 372.667,418.167 372.667,421.833 372,425.5C 370.989,426.337 369.822,426.67 368.5,426.5C 368.5,440.167 368.5,453.833 368.5,467.5C 370.5,467.5 372.5,467.5 374.5,467.5 Z"/></g>
<g><path style="opacity:1" fill="#409d3e" d="M 274.5,455.5 C 301.167,455.5 327.833,455.5 354.5,455.5C 354.5,465.167 354.5,474.833 354.5,484.5C 352.167,484.5 349.833,484.5 347.5,484.5C 347.5,486.5 347.5,488.5 347.5,490.5C 345.173,490.247 343.173,490.914 341.5,492.5C 341.167,492.167 340.833,491.833 340.5,491.5C 341.242,490.713 342.075,490.047 343,489.5C 343.557,485.825 344.89,482.492 347,479.5C 347.808,475.973 347.641,472.64 346.5,469.5C 328.671,468.668 310.671,468.168 292.5,468C 293.5,467.667 294.5,467.333 295.5,467C 293.19,466.503 290.857,466.337 288.5,466.5C 288.739,464.533 288.406,462.699 287.5,461C 283.179,460.501 278.846,460.334 274.5,460.5C 274.5,458.833 274.5,457.167 274.5,455.5 Z"/></g>
<g><path style="opacity:0.247" fill="#95da8d" d="M 335.5,493.5 C 335.5,494.5 335.5,495.5 335.5,496.5C 333.708,496.366 332.042,496.699 330.5,497.5C 322.795,499.652 315.129,499.985 307.5,498.5C 317.457,499.711 326.79,498.044 335.5,493.5 Z"/></g>
<g><path style="opacity:0.99" fill="#429e3f" d="M 306.5,498.5 C 306.833,498.5 307.167,498.5 307.5,498.5C 315.129,499.985 322.795,499.652 330.5,497.5C 332.035,499.052 333.869,500.385 336,501.5C 336.456,502.744 335.956,503.577 334.5,504C 336.473,504.495 338.473,504.662 340.5,504.5C 340.285,506.179 340.952,507.179 342.5,507.5C 339.68,510.081 336.346,511.914 332.5,513C 320.097,516.155 307.764,515.821 295.5,512C 291.083,510.067 287.083,507.567 283.5,504.5C 282.829,503.153 282.829,501.986 283.5,501C 286.095,501.131 288.595,500.964 291,500.5C 291.667,499.833 291.667,499.167 291,498.5C 289.745,497.789 288.579,496.956 287.5,496C 288.701,495.097 289.535,493.931 290,492.5C 290.308,493.308 290.808,493.975 291.5,494.5C 293.102,493.45 293.935,494.117 294,496.5C 294.725,495.941 295.558,495.608 296.5,495.5C 299.561,497.432 302.895,498.432 306.5,498.5 Z"/></g>
</svg>
